<svg width="300" height="141" viewBox="0 0 300 141" fill="none" xmlns="http://www.w3.org/2000/svg">
<path d="M283.893 140.784C283.069 140.785 282.254 140.61 281.503 140.269C280.753 139.929 280.084 139.432 279.541 138.811C238.757 92.2547 208.178 68.6134 183.644 51.6284C165.856 39.3132 150.307 34.4063 137.432 37.0421C126.961 39.1857 120.423 45.9074 116.783 51.1698C112.903 56.7766 110.805 63.946 110.873 71.3577C110.903 74.5513 108.338 77.1645 105.145 77.1941H105.09C101.92 77.1941 99.3379 74.6406 99.3078 71.465C99.2168 61.687 102.045 52.1421 107.272 44.5884C111.239 38.854 120.132 28.778 135.112 25.7108C151.2 22.4175 169.745 27.9385 190.228 42.1195C215.343 59.5069 246.628 83.6862 288.241 131.19C290.345 133.593 290.104 137.246 287.701 139.351C286.648 140.276 285.295 140.785 283.893 140.783" fill="#F2F4F8"/>
<path d="M5.78057 140.784C4.3792 140.785 3.02537 140.276 1.97237 139.351C-0.429793 137.246 -0.67158 133.593 1.43314 131.19C43.0462 83.6862 74.3312 59.5069 99.4463 42.1195C119.93 27.9385 138.473 22.4175 154.562 25.7108C169.543 28.778 178.435 38.8546 182.402 44.5889C187.629 52.1416 190.456 61.687 190.366 71.465C190.336 74.6406 187.753 77.1935 184.584 77.1935H184.53C181.335 77.1645 178.771 74.5513 178.801 71.3577C178.87 63.946 176.771 56.7766 172.891 51.1698C169.25 45.9074 162.713 39.1851 152.242 37.0421C139.366 34.4057 123.818 39.3138 106.029 51.6284C81.4959 68.614 50.9166 92.2541 10.1326 138.811C9.59025 139.432 8.92117 139.929 8.17045 140.269C7.41972 140.61 6.6048 140.785 5.78057 140.784Z" fill="#F2F4F8"/>
<path d="M5.78057 6.29975e-06C4.3792 -0.00129241 3.02537 0.508049 1.97237 1.43273C-0.429793 3.53744 -0.67158 7.19083 1.43314 9.59357C43.0462 57.0976 74.3312 81.2769 99.4463 98.6643C119.93 112.845 138.473 118.366 154.562 115.073C169.543 112.006 178.435 101.929 182.402 96.1949C187.629 88.6423 190.456 79.0968 190.366 69.3188C190.336 66.1432 187.753 63.5903 184.584 63.5903H184.53C181.335 63.6193 178.771 66.2325 178.801 69.4261C178.87 76.8378 176.771 84.0072 172.891 89.614C169.25 94.8764 162.713 101.599 152.242 103.742C139.366 106.378 123.818 101.47 106.029 89.1554C81.4959 72.1698 50.9166 48.5297 10.1326 1.97253C9.59025 1.35191 8.92117 0.854728 8.17045 0.514473C7.41972 0.174218 6.6048 -0.00121176 5.78057 6.29975e-06Z" fill="#F2F4F8"/>
<path d="M144.373 116.102C141.193 116.102 138.096 115.795 135.086 115.178C120.105 112.111 111.212 102.034 107.245 96.3007C102.019 88.7475 99.1904 79.2021 99.2814 69.4247C99.311 66.2491 101.895 63.6956 105.063 63.6956H105.118C108.311 63.7246 110.877 66.3384 110.847 69.532C110.778 76.9437 112.876 84.1131 116.756 89.7199C120.397 94.9817 126.934 101.704 137.405 103.848C150.281 106.483 165.829 101.576 183.617 89.2612C208.152 72.2751 238.731 48.635 279.515 2.07837C281.62 -0.323789 285.273 -0.565567 287.676 1.53915C290.078 3.64329 290.32 7.29667 288.215 9.69941C246.602 57.2034 215.317 81.3827 190.202 98.7702C173.551 110.297 158.182 116.102 144.373 116.102Z" fill="#F2F4F8"/>
</svg>
